<svg width="50" height="34" viewBox="0 0 50 34" fill="none" xmlns="http://www.w3.org/2000/svg">
<path d="M7.68 10.12C6.8 11.8267 6.36 14.08 6.36 16.88C6.36 19.68 6.8 21.9333 7.68 23.64C8.56 25.3467 9.93333 26.2 11.8 26.2C13.6667 26.2 15.04 25.3467 15.92 23.64C16.8 21.9333 17.24 19.68 17.24 16.88C17.24 14.08 16.8 11.8267 15.92 10.12C15.04 8.41333 13.6667 7.56 11.8 7.56C9.93333 7.56 8.56 8.41333 7.68 10.12ZM11.8 31.32C7.93333 31.32 5.04 30.0133 3.12 27.4C1.2 24.76 0.24 21.2533 0.24 16.88C0.24 12.48 1.2 8.97333 3.12 6.36C5.04 3.72 7.93333 2.4 11.8 2.4C15.6667 2.4 18.56 3.72 20.48 6.36C22.4 8.97333 23.36 12.48 23.36 16.88C23.36 21.2533 22.4 24.76 20.48 27.4C18.56 30.0133 15.6667 31.32 11.8 31.32ZM36.6172 33.76V30.84C33.2305 30.3067 30.1105 28.7733 27.2572 26.24L30.9772 21.72C33.0572 23.5333 34.9372 24.6933 36.6172 25.2V19.24C33.8172 18.52 31.7639 17.56 30.4572 16.36C29.1505 15.1333 28.4972 13.3867 28.4972 11.12C28.4972 8.82667 29.2439 6.94667 30.7372 5.48C32.2305 3.98667 34.1905 3.09333 36.6172 2.8V0.84H40.8572V2.88C43.5239 3.25333 46.1772 4.36 48.8172 6.2L45.5372 10.92C43.8572 9.72 42.2972 8.92 40.8572 8.52V14.28C43.7372 15.0267 45.8572 16.0267 47.2172 17.28C48.6039 18.5333 49.2972 20.3067 49.2972 22.6C49.2972 24.8933 48.5239 26.7867 46.9772 28.28C45.4572 29.7733 43.4172 30.6667 40.8572 30.96V33.76H36.6172ZM42.8972 22.92C42.8972 22.36 42.7505 21.8933 42.4572 21.52C42.1639 21.1467 41.6305 20.8 40.8572 20.48V25.4C42.2172 24.9733 42.8972 24.1467 42.8972 22.92ZM36.6172 8.36C35.4705 8.76 34.8972 9.49333 34.8972 10.56C34.8972 11.6267 35.4705 12.44 36.6172 13V8.36Z" fill="#23A6F0"/>
</svg>
